<?xml version="1.0" encoding="utf-8"?>
<!-- Generator: Adobe Illustrator 23.0.2, SVG Export Plug-In . SVG Version: 6.00 Build 0)  -->
<svg version="1.1" id="Layer_1" xmlns="http://www.w3.org/2000/svg" xmlns:xlink="http://www.w3.org/1999/xlink" x="0px" y="0px"
	 viewBox="0 0 864 864" style="enable-background:new 0 0 864 864;" xml:space="preserve">
<style type="text/css">
	.st0{fill:#AFB6DC;}
	.st1{fill:#7A9072;}
	.st2{fill:#AC4A9C;}
</style>
<g>
	<path class="st0" d="M457.3,378.3c-15-0.4-27.8-6.5-38.9-15.8c-26.7-22.5-42.9-51.3-50.2-85.2c-0.6-2.8-0.4-5.9-0.5-8.8
		c-0.1-3.7-0.4-7.7,3.2-9.8c4.1-2.4,7.3,0.6,10.8,2.3c5.6,2.9,11.1,6,17,8c8.3,2.8,17.1,4.5,25.5,6.9c21.8,6.2,40.8,17.2,56.3,33.7
		c3.9,4.1,6.2,10.3,7.6,16c3.4,13.8,1.7,27.3-6,39.5C476.5,374.1,468,378.4,457.3,378.3z"/>
	<path class="st0" d="M410,234.2c1.1-7.8,2.1-16.1,3.3-24.4c0.2-1.2,0.8-2.4,1.3-3.5c1.8-3.6,3.2-3.6,5.7-0.5
		c2.9,3.7,5.6,7.8,9.1,10.9c6.8,6.2,15.5,7.3,24.3,7.8c2.5,0.1,5.1,0,7.6,0c3.4,0,4.9,1.9,3.2,4.8c-2.4,4.2-5,8.4-8,12.2
		c-6.9,8.9-15.1,16.5-24.6,22.6c-10.7,6.9-16.4,4.7-19-7.8C411.3,249.3,410.9,242,410,234.2z"/>
	<path class="st0" d="M728.2,201.8c-1.2,0.1-2.5,0.2-3.7,0.2c-20.3,0.5-40.7,0.2-61,1.6c-22.7,1.6-45.4,4.2-68,7.3
		c-9.2,1.3-18.1,4.9-26.9,7.9c-4.7,1.6-8.6,4.7-10.1,10c-0.4,0-0.8,0-1.2,0c-0.7-3.1-1.7-6.2-2-9.3c-0.6-7.5,1.1-14.6,5.4-20.7
		c1.2-1.8,3.9-3.5,6-3.5c15.7-0.1,31.4,0.1,47.1,0.6c12,0.3,24.1,1.2,36.1,1.8c21,1,41.9,2.1,62.9,3.1c5.1,0.2,10.2,0,15.3,0
		C728.2,201,728.2,201.4,728.2,201.8z"/>
</g>
<g>
	<path class="st1" d="M347.2,814.4c2.9-6.1,5.9-12.3,8.8-18.4c3.1-6.6,6.1-13.2,9.2-19.9c5.2-11.3,6.4-23.3,7.1-35.6
		c0.7-13.4,0.5-26.8-3.2-39.6c-5.8-19.6-12.7-38.9-19.1-58.3c-6.3-19-12.6-38.1-18.7-57.2c-7.9-24.4-6.1-48.3,3.9-71.8
		c8.5-20,17.1-40,24.8-60.3c6.9-18.2,18-32.7,33.4-44.3c8.9-6.7,16.1-15.2,22.1-24.6c5-7.8,6.1-7.8,15.2-5.7
		c8.3,1.9,16.7,3.4,25.1,4.4c9.4,1.1,17.5-2.2,24.5-8.7c14.4-13.2,20.2-40.9,11.2-57.4c-8.5-15.6-20.8-27-37.2-33.8
		c-6.3-2.7-12.6-5.5-18.7-8.7c-5.2-2.7-5-4.4-0.6-8.1c8.4-7,17.2-13.6,24.8-21.4c11.8-12.3,17.6-27.6,17.8-44.6
		c0.2-17.6,10.2-27.6,25-33.9c14.2-6,27.7-3.6,39.3,6.4c6.3,5.4,11.3,12.3,16.8,18.6c1.6,1.8,1.5,3.4,0.1,5.6
		c-5.3,8.7-8.6,17.9-6.3,28.3c0.3,1.3,0.8,3,1.8,3.6c3.5,1.9,3.5,4.9,3.6,8.3c0.4,18.9-5.2,36.6-11.7,53.9
		c-9.5,25.5-20.9,50-38.6,71c-25,29.8-55.2,52.8-91.2,68.1c-9.5,4-19.2,7.3-29.8,5.5c-5.7-0.9-9.6,2.4-12.7,6.7
		c-9.4,12.9-16.4,27-21.9,42c-7.6,20.6-13.5,41.5-16.1,63.4c-1.8,14.3,0.4,28.3,4.5,41.8c7,23.2,14.7,46.2,22.2,69.3
		c6.5,19.8,14.8,39.3,16.5,60.3c1.2,14.3,0.7,28.8,0.3,43.2c-0.1,3.7-1.9,7.6-3.9,10.8c-8.1,12.8-16.6,25.4-25,38
		c-0.8,1.2-1.6,2.4-2.5,3.6C347.8,814.7,347.5,814.5,347.2,814.4z"/>
	<path class="st1" d="M294.1,775.3c-2.7-4.7-5.6-9.2-8.1-14c-11.9-23-22.9-46.3-26.3-72.3c-1.3-9.9-1.7-20.2-0.5-30.1
		c2.3-18.7,5.9-37.2,9.4-55.8c5.6-29.9,19.6-55.9,38.4-79.5c2.5-3.2,4.9-6.5,7.3-9.7c0.2-0.2,0.4-0.3,1.2-0.2
		c-1.5,2.5-2.8,5-4.4,7.4c-16.9,25.6-27.8,53.5-33.7,83.6c-2.6,13.3-6.8,26.3-9.5,39.6c-5.6,28-4.3,55.7,6.7,82.5
		c6.1,14.9,12.7,29.6,19.1,44.4c0.5,1.2,1,2.5,1.4,3.7C294.8,775,294.4,775.1,294.1,775.3z"/>
</g>
<g>
	<path class="st2" d="M408.8,201.2c-4.6-5.4-8.9-10.4-13.1-15.4c-16.3-19.4-33.4-38.2-48.6-58.4c-17.9-23.7-29.8-50.7-38.5-79.1
		c-0.6-2-0.8-4.1-0.8-6.2c-0.1-4.8,1.3-5.7,5.6-3.3c9.5,5.3,16.9,12.9,23.8,21.1c17.6,20.7,31.4,43.8,43.7,67.7
		c10.4,20.1,19.6,40.7,29.4,61C412.2,192.8,412.1,196.6,408.8,201.2z"/>
	<path class="st2" d="M178.1,188.3c12.4,3.3,25.1,5.9,37.2,10.1c34.2,11.7,68.3,23.8,102.3,36.2c13.5,5,26.6,11.3,39.8,17.1
		c4.4,1.9,6.7,10.8,3.7,14.5c-0.6,0.8-2.9,0.7-4.2,0.2c-13.4-4.4-26.7-9.6-40.3-13.4c-18.2-5.1-36.7-9-55.1-13.6
		c-17.1-4.3-34.4-8.3-49.3-18.5c-11.9-8.1-23.9-16.3-33.5-27.2c-0.9-1.1-1.3-2.7-1.9-4.1C177.2,189.3,177.6,188.8,178.1,188.3z"/>
	<path class="st2" d="M194,222.5c3.2,1.8,6.4,3.7,9.7,5.3c14.6,7.1,30.5,10.1,46.2,13.4c26.1,5.5,52.7,9.5,77.9,18.6
		c9.4,3.4,18.4,8.1,27.4,12.6c2.7,1.3,5,3.7,7.1,5.8c0.9,1,1.1,2.7,1.5,4.1c-1.4,0.4-2.8,1.1-4.2,1c-5.6-0.4-11.1-1-16.7-1.7
		c-18.6-2.4-37.2-4.8-55.7-7.6c-18.4-2.8-36.6-6.6-54.1-13.3c-6.3-2.4-11.9-5.6-16.4-10.6c-6.8-7.5-13.6-14.9-20.4-22.4
		c-1.2-1.3-2.1-2.9-3.1-4.4C193.6,223.1,193.8,222.8,194,222.5z"/>
	<path class="st2" d="M202.7,252.4c2.6,0.8,5.2,1.5,7.7,2.5c15.9,5.8,31.6,12.4,47.8,17.5c19.7,6.2,40,9.2,60.5,11.2
		c14.8,1.4,29.6,2.3,44.3,3.7c1.6,0.1,4,1.6,4.4,2.9c0.9,3.2,0.9,6.7,1,10.1c0,0.3-1.3,0.8-2.1,0.9c-21.7,1.2-43.3,2.6-65,3.4
		c-17.4,0.7-32.9-5.7-47.3-15.1c-15-9.8-30.2-19.4-45.1-29.3c-2.6-1.7-4.8-4.1-7.1-6.2C202.1,253.5,202.4,252.9,202.7,252.4z"/>
	<path class="st2" d="M395.5,402.1c-2.3,2-4.6,3.9-6.8,5.9c-14.1,12.6-25.5,27.5-33.2,44.6c-11.1,24.5-20.6,49.7-30.9,74.6
		c-3.9,9.6-8.3,19-11.9,28.7c-3.7,10-6.6,20.2-9.9,30.3c-0.8,2.3-2,4.5-3.5,7.6c-4.1-6.2-6.3-11.6-5.6-18.6
		c2.6-25.9,16.2-47.1,28.6-68.9c9.7-16.9,19.6-33.7,28.2-51.1c3.9-8,5.4-17.3,7.2-26.2c2.1-10.4,7.2-17.6,17.6-21
		c6.6-2.1,13-4.8,19.5-7.3C395.1,401.2,395.3,401.6,395.5,402.1z"/>
	<path class="st2" d="M319.3,96.5c2.5,4.3,4.5,9,7.5,12.9c10.5,13.8,21,27.7,32,41c14.6,17.5,30.6,33.9,42.9,53.3
		c4.3,6.7,4.1,13.7,3.5,22.1c-2-1.9-3.4-3.1-4.6-4.5c-20.3-23.2-40.5-46.5-60.8-69.6c-7.6-8.6-12.4-18.6-15.9-29.3
		c-2.5-7.7-4.1-15.6-6.1-23.5c-0.1-0.6,0.1-1.3,0.1-1.9C318.5,96.8,318.9,96.7,319.3,96.5z"/>
	<path class="st2" d="M281.1,551.9c-3.5-3.9-2.7-7.8-2.4-11.6c1-10.8,6.9-19.5,13.1-27.8c14.6-19.8,30.1-39,44.2-59.2
		c7.4-10.5,12.7-22.4,18.9-33.7c0.7-1.3,1.4-2.7,2.8-4c-0.8,4.9-1.6,9.8-2.3,14.8c-2,15.2-9.3,28.1-17.7,40.4
		c-13.4,19.5-27.3,38.7-40.9,58c-4.1,5.8-8,11.9-12,17.8C283.8,548.3,282.6,549.8,281.1,551.9z"/>
	<path class="st2" d="M256.9,300.5c6.6,1.9,12.7,4,18.9,5.3c14.9,3,30,3.9,45.1,2.4c14.9-1.5,29.8-3,44.7-4.4
		c1.2-0.1,3.6,1.1,3.6,1.8c0.1,1.8-0.4,4.9-1.5,5.2c-23,7.6-45.8,16.6-70.5,16.2c-13.5-0.2-25.6-5.7-36-14.4
		C257.8,309.8,255.1,306.1,256.9,300.5z"/>
	<path class="st2" d="M329.3,145.9c1.1,1.3,2.4,2.6,3.4,4.1c13.2,20.6,29.4,38.8,46.4,56.3c8.2,8.5,16.5,16.9,24.7,25.2
		c4.4,4.5,3.9,10,3.2,15.4c-0.4,2.7-2.4,1.5-3.8,0.4c-7-5.9-14-11.7-20.8-17.7c-7.8-6.8-15.9-13.3-23-20.9
		c-6.5-6.9-12.7-14.4-17.2-22.6c-5.4-9.7-9-20.4-13.1-30.9c-1.1-2.7-0.9-5.9-1.4-8.8C328.3,146.3,328.8,146.1,329.3,145.9z"/>
	<path class="st2" d="M295.5,329.8c24.5-0.3,47.9-5.8,70.5-15.2c2.4-1,5.1-4,7.8-0.4c2.3,3.2,2,5.9-2.6,9
		c-10.3,6.9-20.4,14.5-31.7,19.6c-16,7.2-32.5,4.1-48.6-1.7c-0.5-0.2-1.1-0.4-1.5-0.8c-2.7-2.2-6.7-4.2-4.9-8.2
		c0.7-1.6,5-1.7,7.6-2.4C293.2,329.6,294.4,329.8,295.5,329.8z"/>
	<path class="st2" d="M411.1,263.2c-6.7-1.2-13.3-2.2-20-3.6c-3.8-0.8-7.6-2-11.3-3.2c-19-6.2-30.8-20.2-40.3-36.7
		c-0.4-0.6-0.8-1.3-0.8-1.9c0-2.4-0.6-5.6,0.6-7.1c1.2-1.4,4.9-1.8,6.8-1c5.2,2.3,10.6,4.7,15,8.3c12.9,10.6,25.3,21.7,37.9,32.6
		c4.2,3.6,8.5,7.1,12.7,10.7C411.5,262,411.3,262.6,411.1,263.2z"/>
	<path class="st2" d="M347.5,390.8c-10.6-1.2-20.4-4.7-29.3-10.5c-1.2-0.8-1.5-2.9-2.2-4.4c1.5-0.4,3.4-1.6,4.4-1.1
		c8.8,4.8,16.3,0.8,23-4c8.7-6.1,16.9-12.9,24.8-19.9c7.6-6.7,17-8.6,24.2-4c3.6,2.3,3.8,4.8,0.1,6.4c-8.8,3.7-14.4,10.8-20.3,17.8
		c-4,4.7-7.9,9.5-12.2,13.9C356.7,388.4,352.8,391.1,347.5,390.8z"/>
	<path class="st2" d="M300,351c3.6,0.3,6.3,0.6,9,0.7c14.8,0.9,28.8-2.6,41.5-10c7.6-4.4,14.6-9.8,21.7-15c4.1-2.9,5.5-3.1,8.8,0.7
		c1.7,1.9,3,4.3,4.1,6.7c1.1,2.4,0.4,4.7-2.3,5.4c-12,3.4-20.9,11.6-30.5,18.9c-5.7,4.3-11.3,9.3-18.9,9.2
		c-12.5-0.2-23.4-4.7-32.2-13.8C300.8,353.6,300.7,352.8,300,351z"/>
	<path class="st2" d="M274.1,524.2c2.9-8.8,7.8-16.6,13-24.2c11.7-17,23.8-33.7,35.5-50.7c9.2-13.3,18.5-26.5,24.1-41.8
		c0.5-1.3,2-2.3,3.1-3.4c0.6,1.5,1.7,2.9,1.8,4.4c0.6,6.9-1.1,13.6-4.6,19.4c-8.9,14.4-17.8,28.9-27.5,42.7
		c-10.4,14.8-21.7,28.9-32.8,43.2c-3.3,4.2-7.5,7.7-11.3,11.5C274.9,524.9,274.5,524.5,274.1,524.2z"/>
	<path class="st2" d="M323.1,539.1c-0.2,4.6-0.7,9.3-0.6,13.9c0.2,11,0.9,22.1,0.9,33.1c0,5.3-0.9,10.6-2,15.7
		c-2.6,11.4-5.6,22.8-8.6,34.1c-0.6,2.2-2,4.1-3.1,6.2c-0.6,0-1.1,0-1.7-0.1c-0.6-3-1.7-5.9-1.9-8.9c-1.2-32,3.3-63.1,15.4-93
		c0.2-0.5,0.5-0.9,0.8-1.3C322.6,539,322.8,539.1,323.1,539.1z"/>
	<path class="st2" d="M323.5,684c-0.9-5.1-2.4-10.3-2.7-15.5c-0.7-13-1.5-26-0.9-39c0.5-9.7,3.4-19.2,4.8-28.9c1-6.4,1.2-13,2-19.5
		c3.7,15.6,9.2,31,7.7,47.3c-1.6,18.7-3.4,37.4-9,55.5C324.8,684,324.1,684,323.5,684z"/>
	<path class="st2" d="M354.2,403.2c-2.1-0.2-4.3-0.1-6.2-0.6c-1.7-0.5-3.2-1.6-4.8-2.5c1.3-1.3,2.4-2.8,4-3.7
		c3.9-2.3,8.9-3.6,12-6.7c8.1-8.3,15.6-17.2,23-26.1c4.5-5.4,12.9-8.3,19.6-6.1c1.9,0.6,3,1.5,1.8,3.6c-8.5,15.1-19.3,28.3-33.7,38
		c-4.3,2.9-10.1,3.4-15.2,5C354.4,403.9,354.3,403.6,354.2,403.2z"/>
	<path class="st2" d="M367.3,405.4c1.2-1.1,2.4-2.2,3.7-3.2c11.7-8.7,21.7-18.9,29.6-31.2c1.1-1.8,2.4-3.4,3.9-4.9
		c2.9-2.9,6.4-3,9.1,0.1c3.8,4.3,4.8,8.1,1.9,11c-10.9,10.8-22.6,20.5-36.6,27c-3.4,1.6-7.3,1.9-11,2.8
		C367.8,406.5,367.6,405.9,367.3,405.4z"/>
	<path class="st2" d="M344.6,517.7c6.4,32.9,7,72.6,0.2,80.7c-1.3-6.5-3.6-12.2-3.4-17.7c0.4-20,1.6-40,2.5-60
		C343.8,519.8,344.2,518.9,344.6,517.7z"/>
</g>
</svg>
